<svg version="1.2" xmlns="http://www.w3.org/2000/svg" viewBox="0 0 48 48" width="48" height="48">
	<title>schedule-svg</title>
	<style>
		.s0 { fill: #4f4f4f } 
	</style>
	<path id="Layer" fill-rule="evenodd" class="s0" d="m24 44q-4.1 0-7.8-1.6-3.6-1.6-6.3-4.3-2.8-2.7-4.3-6.3-1.6-3.7-1.6-7.8 0-4.1 1.6-7.8 1.5-3.6 4.3-6.3 2.7-2.8 6.3-4.3 3.7-1.6 7.8-1.6 4.1 0 7.8 1.6 3.6 1.5 6.3 4.3 2.8 2.7 4.3 6.3 1.6 3.7 1.6 7.8 0 4.1-1.6 7.8-1.6 3.6-4.3 6.3-2.7 2.8-6.3 4.3-3.7 1.6-7.8 1.6zm0-3q7 0 12-5 5-5 5-12 0-7-5-12-5-5-12-5-7 0-12 5-5 5-5 12 0 7 5 12 5 5 12 5zm-1.3-16.4v-11.3h3v10.1l7.9 8-2.2 2.2z"/>
</svg>